<svg preserveAspectRatio="none" width="100%" height="100%" overflow="visible" style="display: block;" viewBox="0 0 60 60.0928" fill="none" xmlns="http://www.w3.org/2000/svg">
<g id="suitcase">
<circle id="Ellipse" cx="30" cy="30" r="30" fill="var(--fill-0, #EBDDB6)"/>
<path id="Vector" d="M21.7395 21.7396H18.0223C15.7094 21.7396 14.553 21.7396 13.6691 22.1898C12.892 22.5858 12.2602 23.2176 11.8643 23.9947C11.4141 24.8786 11.4141 26.035 11.4141 28.3479V39.9124C11.4141 42.2253 11.4141 43.3817 11.8643 44.2656C12.2602 45.0427 12.892 45.6745 13.6691 46.0705C14.5509 46.5206 15.7074 46.5206 18.0161 46.5206H41.9835C44.2923 46.5206 45.4466 46.5206 46.3284 46.0705C47.107 45.674 47.7389 45.0421 48.1354 44.2656C48.5856 43.3817 48.5856 42.2294 48.5856 39.9206V28.3417C48.5856 26.033 48.5856 24.8765 48.1354 23.9947C47.7389 23.2173 47.1063 22.5854 46.3284 22.1898C45.4466 21.7396 44.2902 21.7396 41.9773 21.7396H38.2602M21.7395 21.7396H38.2602M21.7395 21.7396C21.7395 19.5489 22.6098 17.4478 24.1589 15.8987C25.708 14.3496 27.809 13.4793 29.9998 13.4793C32.1906 13.4793 34.2916 14.3496 35.8408 15.8987C37.3899 17.4478 38.2602 19.5489 38.2602 21.7396" stroke="var(--stroke-0, black)" stroke-width="3.30413" stroke-linecap="round" stroke-linejoin="round"/>
</g>
</svg>
