<svg preserveAspectRatio="none" width="100%" height="100%" overflow="visible" style="display: block;" viewBox="0 0 60 60.0928" fill="none" xmlns="http://www.w3.org/2000/svg">
<g id="Frame 2">
<circle id="Ellipse" cx="30" cy="30" r="30" fill="var(--fill-0, #EBDDB6)"/>
<path id="Vector" d="M30.0001 13.6161C20.9658 13.6161 13.6162 20.9656 13.6162 30C13.6162 39.0344 20.9658 46.3839 30.0001 46.3839C39.0345 46.3839 46.384 39.0344 46.384 30C46.384 20.9656 39.0345 13.6161 30.0001 13.6161ZM28.5925 16.4328H28.6348V17.7121H31.3654V16.4314C34.4988 16.7354 37.4292 18.1188 39.6553 20.3449C41.8813 22.5709 43.2647 25.5013 43.5687 28.6347H42.2881V31.3653H43.5687C43.2647 34.4987 41.8813 37.4291 39.6553 39.6551C37.4292 41.8812 34.4988 43.2646 31.3654 43.5686V42.2879H28.6348V43.5686C25.5014 43.2646 22.571 41.8812 20.345 39.6551C18.1189 37.4291 16.7356 34.4987 16.4315 31.3653H17.7122V28.6347H16.4315C16.7339 25.5078 18.1112 22.5825 20.3287 20.3573C22.5462 18.1321 25.4667 16.7447 28.5925 16.4314V16.4328ZM38.8747 21.1254L27.4825 27.4823L21.1255 38.8746L32.5178 32.5177L38.8747 21.1254ZM30.0001 27.952C30.5433 27.952 31.0642 28.1678 31.4483 28.5519C31.8323 28.9359 32.0481 29.4568 32.0481 30C32.0481 30.5432 31.8323 31.0641 31.4483 31.4481C31.0642 31.8322 30.5433 32.048 30.0001 32.048C29.457 32.048 28.936 31.8322 28.552 31.4481C28.1679 31.0641 27.9521 30.5432 27.9521 30C27.9521 29.4568 28.1679 28.9359 28.552 28.5519C28.936 28.1678 29.457 27.952 30.0001 27.952Z" fill="var(--fill-0, black)"/>
</g>
</svg>
