<svg preserveAspectRatio="none" width="100%" height="100%" overflow="visible" style="display: block;" viewBox="0 0 60 60.0928" fill="none" xmlns="http://www.w3.org/2000/svg">
<g id="step">
<circle id="Ellipse" cx="30" cy="30" r="30" fill="var(--fill-0, #EBDDB6)"/>
<path id="Vector" d="M22.7341 26.0038V31.0902L27.8204 34.36L32.9067 31.0902V26.0038L27.8204 22.7341L22.7341 26.0038ZM22.7341 26.0038L18.8292 22.269M39.0045 40.6307L30.3316 32.7454M40.1729 28.547H32.9067M24.8442 32.4475L18.6388 39.067M37.0019 19.4803L31.6453 25.1929M19.8276 21.6441L16.9211 23.4607L14.0146 21.6441V18.7377L16.9211 16.9211L19.8276 18.7377V21.6441ZM41.6261 18.7377L38.7197 20.5542L35.8132 18.7377V15.8312L38.7197 14.0146L41.6261 15.8312V18.7377ZM19.8276 42.7161L16.9211 44.5326L14.0146 42.7161V39.8096L16.9211 37.993L19.8276 39.8096V42.7161ZM43.806 44.1693L40.8995 45.9858L37.993 44.1693V41.2628L40.8995 39.4463L43.806 41.2628V44.1693ZM45.9858 30.0002L43.0794 31.8168L40.1729 30.0002V27.0938L43.0794 25.2772L45.9858 27.0938V30.0002Z" stroke="var(--stroke-0, black)" stroke-width="2" stroke-miterlimit="10" stroke-linecap="round" stroke-linejoin="round"/>
</g>
</svg>
