<svg preserveAspectRatio="none" width="100%" height="100%" overflow="visible" style="display: block;" viewBox="0 0 60 60.3489" fill="none" xmlns="http://www.w3.org/2000/svg">
<g id="icon back to work">
<circle id="Ellipse" cx="30" cy="30.3489" r="30" fill="var(--fill-0, #EBDDB6)"/>
<g id="Group">
<path id="Vector" d="M17 30.3489V26.3489C17 23.1663 18.2643 20.114 20.5147 17.8636C22.7652 15.6132 25.8174 14.3489 29 14.3489C32.1826 14.3489 35.2348 15.6132 37.4853 17.8636C39.7357 20.114 41 23.1663 41 26.3489V30.3489M13 42.3489C13 43.4097 13.4214 44.4272 14.1716 45.1773C14.9217 45.9274 15.9391 46.3489 17 46.3489C18.0609 46.3489 19.0783 45.9274 19.8284 45.1773C20.5786 44.4272 21 43.4097 21 42.3489C21 41.288 20.5786 40.2706 19.8284 39.5205C19.0783 38.7703 18.0609 38.3489 17 38.3489C15.9391 38.3489 14.9217 38.7703 14.1716 39.5205C13.4214 40.2706 13 41.288 13 42.3489ZM37 42.3489C37 43.4097 37.4214 44.4272 38.1716 45.1773C38.9217 45.9274 39.9391 46.3489 41 46.3489C42.0609 46.3489 43.0783 45.9274 43.8284 45.1773C44.5786 44.4272 45 43.4097 45 42.3489C45 41.288 44.5786 40.2706 43.8284 39.5205C43.0783 38.7703 42.0609 38.3489 41 38.3489C39.9391 38.3489 38.9217 38.7703 38.1716 39.5205C37.4214 40.2706 37 41.288 37 42.3489Z" stroke="var(--stroke-0, black)" stroke-width="2" stroke-linecap="round" stroke-linejoin="round"/>
<path id="Vector_2" d="M35.0001 24.349L41.0001 30.349L47.0001 24.349" stroke="var(--stroke-0, black)" stroke-width="2" stroke-linecap="round" stroke-linejoin="round"/>
</g>
</g>
</svg>
