<svg preserveAspectRatio="none" width="100%" height="100%" overflow="visible" style="display: block;" viewBox="0 0 32 32" fill="none" xmlns="http://www.w3.org/2000/svg">
<path id="whatsapp white" d="M16 0.5C24.5607 0.5 31.5 7.43935 31.5 16C31.5 24.5606 24.5606 31.5 16 31.5H15.999C13.2604 31.5047 10.5698 30.7801 8.2041 29.4004L8.02246 29.2939L7.82031 29.3496L0.71875 31.2871L2.65234 24.1826L2.70703 23.9805L2.60156 23.7988C1.22078 21.4323 0.495221 18.7408 0.5 16.001V16C0.5 7.43935 7.43936 0.500008 16 0.5ZM10.3008 7.9873L10.207 7.99121V7.99219C10.1999 7.99271 10.1927 7.99261 10.1855 7.99316V7.99414C9.91665 8.01361 9.65417 8.0853 9.41211 8.2041L9.39844 8.21094L9.38574 8.21777C9.17745 8.33594 8.98617 8.48259 8.81836 8.65332C8.70429 8.76075 8.61314 8.86392 8.53711 8.95703L8.34766 9.20215C7.7293 10.0061 7.37875 10.9819 7.3418 11.9922L7.33887 12.1943C7.34247 13.064 7.56902 13.8964 7.91016 14.6572L7.91113 14.6592C8.59429 16.1658 9.70863 17.7428 11.165 19.1943H11.166C11.5021 19.5288 11.8515 19.8857 12.2275 20.2168H12.2285C14.0523 21.8223 16.2253 22.9804 18.5752 23.5986L18.6006 23.6055L18.627 23.6094L19.5352 23.749L19.5596 23.752L19.584 23.7539C19.9132 23.7717 20.2469 23.7469 20.5254 23.7334L20.5273 23.7324C21.064 23.7041 21.5876 23.5589 22.0625 23.3076L22.0635 23.3086C22.2859 23.1936 22.5034 23.0688 22.7148 22.9346L22.7207 22.9297L22.7266 22.9258H22.7275L22.7285 22.9248C22.7294 22.9242 22.731 22.9229 22.7324 22.9219C22.7352 22.9199 22.7394 22.9173 22.7441 22.9141C22.754 22.9072 22.7681 22.8976 22.7861 22.8848C22.8225 22.859 22.8753 22.8207 22.9443 22.7695C23.179 22.5957 23.3335 22.4635 23.5352 22.2529L23.5342 22.252C23.7064 22.0738 23.849 21.8708 23.96 21.6436L23.9619 21.6396C24.1191 21.311 24.253 20.7543 24.3076 20.3125V20.3115C24.351 19.954 24.3382 19.7488 24.333 19.6318H24.332C24.3231 19.4204 24.2359 19.2394 24.1387 19.1084C24.0396 18.975 23.9048 18.8563 23.748 18.7803L23.7344 18.7744L22.8027 18.3564L22.7979 18.3545L22.7969 18.3535C22.7962 18.3532 22.795 18.353 22.7939 18.3525C22.7913 18.3514 22.7873 18.3498 22.7822 18.3477C22.772 18.3432 22.7568 18.3366 22.7373 18.3281C22.6978 18.3109 22.64 18.2852 22.5684 18.2539C22.4248 18.1911 22.2238 18.1037 21.9971 18.0039C21.5431 17.8041 20.985 17.5565 20.5625 17.3643L20.5547 17.3604C20.4185 17.3011 20.2731 17.266 20.125 17.2559H20.126C20.1167 17.2549 20.107 17.2547 20.0977 17.2539H20.0967C19.9254 17.2399 19.7529 17.2606 19.5898 17.3154C19.4313 17.3687 19.2859 17.4536 19.1602 17.5635C19.1519 17.5698 19.1446 17.5738 19.1406 17.5771C19.1136 17.5995 19.0891 17.6233 19.0713 17.6416C19.032 17.6819 18.9742 17.7454 18.8867 17.8457C18.7097 18.0486 18.3904 18.4266 17.8115 19.1279L17.8027 19.1377L17.7959 19.1475C17.7888 19.157 17.7788 19.165 17.7676 19.1689C17.7564 19.1729 17.7439 19.1719 17.7324 19.1689C17.653 19.1476 17.5746 19.1213 17.499 19.0889L17.4961 19.0879L17.0986 18.918C16.2279 18.5387 15.4219 18.0251 14.71 17.3965L14.708 17.3945L14.4336 17.1396C14.3424 17.051 14.2487 16.9582 14.1455 16.8584L14.1445 16.8564L13.9238 16.6377C13.4175 16.1202 12.9703 15.5473 12.5928 14.9287L12.5908 14.9248L12.4971 14.7734V14.7725L12.4912 14.7646L12.4287 14.6543C12.4187 14.6342 12.4101 14.6135 12.4014 14.5928C12.4118 14.5813 12.4258 14.567 12.4414 14.5498C12.4814 14.5055 12.5366 14.4439 12.5977 14.375C12.7173 14.24 12.8681 14.0648 12.9688 13.9365C13.1558 13.6984 13.315 13.466 13.4209 13.2949L13.4219 13.2959C13.6262 12.9669 13.756 12.5531 13.6621 12.1543L13.6084 11.9844C13.1587 10.886 12.6935 9.79367 12.2139 8.70703H12.2148C12.1138 8.47754 11.9318 8.31622 11.7617 8.21289C11.588 8.10746 11.3855 8.03745 11.1865 8.01367C11.093 8.00217 10.9989 7.99326 10.9053 7.98633L10.8975 7.98535L10.541 7.97754C10.4609 7.97834 10.3808 7.98287 10.3008 7.9873Z" stroke="var(--stroke-0, white)"/>
</svg>
