<svg preserveAspectRatio="none" width="100%" height="100%" overflow="visible" style="display: block;" viewBox="0 0 129.989 33.5" fill="none" xmlns="http://www.w3.org/2000/svg">
<g id="Frame 3594">
<path id="whatsapp white" d="M16 1.25C24.5607 1.25 31.5 8.18935 31.5 16.75C31.5 25.3106 24.5606 32.25 16 32.25H15.999C13.2604 32.2547 10.5698 31.5301 8.2041 30.1504L8.02246 30.0439L7.82031 30.0996L0.71875 32.0371L2.65234 24.9326L2.70703 24.7305L2.60156 24.5488C1.22078 22.1823 0.495221 19.4908 0.5 16.751V16.75C0.5 8.18935 7.43936 1.25001 16 1.25ZM10.3008 8.7373L10.207 8.74121V8.74219C10.1999 8.74271 10.1927 8.74261 10.1855 8.74316V8.74414C9.91665 8.76361 9.65417 8.8353 9.41211 8.9541L9.39844 8.96094L9.38574 8.96777C9.17745 9.08594 8.98617 9.23259 8.81836 9.40332C8.70429 9.51075 8.61314 9.61392 8.53711 9.70703L8.34766 9.95215C7.7293 10.7561 7.37875 11.7319 7.3418 12.7422L7.33887 12.9443C7.34247 13.814 7.56902 14.6464 7.91016 15.4072L7.91113 15.4092C8.59429 16.9158 9.70863 18.4928 11.165 19.9443H11.166C11.5021 20.2788 11.8515 20.6357 12.2275 20.9668H12.2285C14.0523 22.5723 16.2253 23.7304 18.5752 24.3486L18.6006 24.3555L18.627 24.3594L19.5352 24.499L19.5596 24.502L19.584 24.5039C19.9132 24.5217 20.2469 24.4969 20.5254 24.4834L20.5273 24.4824C21.064 24.4541 21.5876 24.3089 22.0625 24.0576L22.0635 24.0586C22.2859 23.9436 22.5034 23.8188 22.7148 23.6846L22.7207 23.6797L22.7266 23.6758H22.7275L22.7285 23.6748C22.7294 23.6742 22.731 23.6729 22.7324 23.6719C22.7352 23.6699 22.7394 23.6673 22.7441 23.6641C22.754 23.6572 22.7681 23.6476 22.7861 23.6348C22.8225 23.609 22.8753 23.5707 22.9443 23.5195C23.179 23.3457 23.3335 23.2135 23.5352 23.0029L23.5342 23.002C23.7064 22.8238 23.849 22.6208 23.96 22.3936L23.9619 22.3896C24.1191 22.061 24.253 21.5043 24.3076 21.0625V21.0615C24.351 20.704 24.3382 20.4988 24.333 20.3818H24.332C24.3231 20.1704 24.2359 19.9894 24.1387 19.8584C24.0396 19.725 23.9048 19.6063 23.748 19.5303L23.7344 19.5244L22.8027 19.1064L22.7979 19.1045L22.7969 19.1035C22.7962 19.1032 22.795 19.103 22.7939 19.1025C22.7913 19.1014 22.7873 19.0998 22.7822 19.0977C22.772 19.0932 22.7568 19.0866 22.7373 19.0781C22.6978 19.0609 22.64 19.0352 22.5684 19.0039C22.4248 18.9411 22.2238 18.8537 21.9971 18.7539C21.5431 18.5541 20.985 18.3065 20.5625 18.1143L20.5547 18.1104C20.4185 18.0511 20.2731 18.016 20.125 18.0059H20.126C20.1167 18.0049 20.107 18.0047 20.0977 18.0039H20.0967C19.9254 17.9899 19.7529 18.0106 19.5898 18.0654C19.4313 18.1187 19.2859 18.2036 19.1602 18.3135C19.1519 18.3198 19.1446 18.3238 19.1406 18.3271C19.1136 18.3495 19.0891 18.3733 19.0713 18.3916C19.032 18.4319 18.9742 18.4954 18.8867 18.5957C18.7097 18.7986 18.3904 19.1766 17.8115 19.8779L17.8027 19.8877L17.7959 19.8975C17.7888 19.907 17.7788 19.915 17.7676 19.9189C17.7564 19.9229 17.7439 19.9219 17.7324 19.9189C17.653 19.8976 17.5746 19.8713 17.499 19.8389L17.4961 19.8379L17.0986 19.668C16.2279 19.2887 15.4219 18.7751 14.71 18.1465L14.708 18.1445L14.4336 17.8896C14.3424 17.801 14.2487 17.7082 14.1455 17.6084L14.1445 17.6064L13.9238 17.3877C13.4175 16.8702 12.9703 16.2973 12.5928 15.6787L12.5908 15.6748L12.4971 15.5234V15.5225L12.4912 15.5146L12.4287 15.4043C12.4187 15.3842 12.4101 15.3635 12.4014 15.3428C12.4118 15.3313 12.4258 15.317 12.4414 15.2998C12.4814 15.2555 12.5366 15.1939 12.5977 15.125C12.7173 14.99 12.8681 14.8148 12.9688 14.6865C13.1558 14.4484 13.315 14.216 13.4209 14.0449L13.4219 14.0459C13.6262 13.7169 13.756 13.3031 13.6621 12.9043L13.6084 12.7344C13.1587 11.636 12.6935 10.5437 12.2139 9.45703H12.2148C12.1138 9.22754 11.9318 9.06622 11.7617 8.96289C11.588 8.85746 11.3855 8.78745 11.1865 8.76367C11.093 8.75217 10.9989 8.74326 10.9053 8.73633L10.8975 8.73535L10.541 8.72754C10.4609 8.72834 10.3808 8.73287 10.3008 8.7373Z" stroke="var(--stroke-0, white)"/>
<g id="Group">
<path id="Vector" d="M73.8889 6.97222H74.7778M49 12.1278C49 8.14555 49 6.15444 49.7751 4.63267C50.4569 3.29468 51.5447 2.20687 52.8827 1.52511C54.4044 0.75 56.3956 0.75 60.3778 0.75H69.6222C73.6044 0.75 75.5956 0.75 77.1173 1.52511C78.4553 2.20687 79.5431 3.29468 80.2249 4.63267C81 6.15444 81 8.14555 81 12.1278V21.3722C81 25.3544 81 27.3456 80.2249 28.8673C79.5431 30.2053 78.4553 31.2931 77.1173 31.9749C75.5956 32.75 73.6044 32.75 69.6222 32.75H60.3778C56.3956 32.75 54.4044 32.75 52.8827 31.9749C51.5447 31.2931 50.4569 30.2053 49.7751 28.8673C49 27.3456 49 25.3544 49 21.3722V12.1278Z" stroke="var(--stroke-0, white)" stroke-width="1.5" stroke-linecap="round" stroke-linejoin="round"/>
<path id="Vector_2" d="M71.0352 18.2631C71.2339 17.4704 71.2746 16.6464 71.1548 15.838C70.9129 14.2055 70.0324 12.7359 68.707 11.7525C67.3816 10.7691 65.7198 10.3526 64.0872 10.5945C62.4547 10.8363 60.9851 11.7168 60.0017 13.0423C59.0184 14.3677 58.6018 16.0295 58.8437 17.662C59.0856 19.2946 59.9661 20.7642 61.2915 21.7475C61.9478 22.2344 62.6935 22.5873 63.4862 22.786C64.2789 22.9847 65.1029 23.0253 65.9112 22.9056C66.7196 22.7858 67.4965 22.508 68.1975 22.088C68.8985 21.668 69.5099 21.114 69.9968 20.4578C70.4837 19.8015 70.8366 19.0557 71.0352 18.2631Z" stroke="var(--stroke-0, white)" stroke-width="1.5" stroke-linecap="round" stroke-linejoin="round"/>
</g>
<path id="Vector_3" d="M125.302 5.43215C123.064 3.19582 120.214 1.67314 117.111 1.05667C114.009 0.440193 110.793 0.757607 107.871 1.96877C104.948 3.17994 102.451 5.23046 100.694 7.86104C98.9369 10.4916 97.9994 13.5841 98 16.7475C98 20.9902 99.6849 25.0593 102.684 28.0601C105.683 31.0609 109.752 32.7479 113.994 32.75C116.094 32.7501 118.173 32.3397 120.115 31.542C122.051 30.7245 123.811 29.5435 125.302 28.0628C126.788 26.5769 127.967 24.8129 128.771 22.8714C129.575 20.9299 129.989 18.849 129.989 16.7475C129.989 14.646 129.575 12.5651 128.771 10.6236C127.967 8.68206 126.788 6.91801 125.302 5.43215ZM124.174 26.9192C121.871 29.2324 118.849 30.6924 115.605 31.0587V20.4924H118.633C119.061 20.4924 119.47 20.3227 119.772 20.0206C120.074 19.7186 120.244 19.3089 120.244 18.8817C120.244 18.4545 120.074 18.0448 119.772 17.7427C119.47 17.4407 119.061 17.271 118.633 17.271H115.605V12.8576C115.605 12.4304 115.775 12.0207 116.077 11.7186C116.379 11.4166 116.789 11.2469 117.216 11.2469H119.149C119.576 11.2469 119.986 11.0772 120.288 10.7751C120.59 10.473 120.76 10.0633 120.76 9.63614C120.76 9.20895 120.59 8.79925 120.288 8.49718C119.986 8.19512 119.576 8.02541 119.149 8.02541H116.411C115.343 8.02541 114.318 8.44967 113.563 9.20484C112.808 9.96001 112.384 10.9842 112.384 12.0522V17.271H109.372C108.945 17.271 108.535 17.4407 108.233 17.7427C107.931 18.0448 107.761 18.4545 107.761 18.8817C107.761 19.3089 107.931 19.7186 108.233 20.0206C108.535 20.3227 108.945 20.4924 109.372 20.4924H112.384V31.0587C109.392 30.7175 106.584 29.445 104.355 27.4212C102.126 25.3973 100.589 22.7244 99.9617 19.7798C99.3341 16.8352 99.6475 13.7679 100.858 11.0111C102.068 8.25434 104.113 5.94739 106.706 4.41614C109.298 2.88489 112.306 2.20674 115.304 2.47747C118.303 2.74821 121.14 3.95414 123.416 5.92494C125.692 7.89574 127.292 10.5318 127.988 13.4608C128.685 16.3897 128.444 19.4636 127.299 22.2481C126.568 23.9921 125.507 25.5783 124.174 26.9192Z" fill="var(--fill-0, white)"/>
</g>
</svg>
