<svg preserveAspectRatio="none" width="100%" height="100%" overflow="visible" style="display: block;" viewBox="0 0 60 60.3489" fill="none" xmlns="http://www.w3.org/2000/svg">
<g id="icon management">
<circle id="Ellipse" cx="30" cy="30.3489" r="30" fill="var(--fill-0, #EBDDB6)"/>
<g id="Group">
<path id="Vector" d="M23.873 32.1044C23.6855 31.1948 23.7028 30.2549 23.9238 29.3529C24.1447 28.4508 24.5638 27.6093 25.1505 26.8894C25.7372 26.1695 26.4768 25.5892 27.3157 25.1908C28.1546 24.7923 29.0717 24.5857 30.0004 24.5858C30.9286 24.5858 31.8452 24.7924 32.6836 25.1906C33.5221 25.5887 34.2614 26.1685 34.848 26.8878C35.4346 27.6071 35.8538 28.4479 36.0752 29.3493C36.2965 30.2507 36.3145 31.1901 36.1278 32.0993L33.8416 43.2161C33.6614 44.1014 33.1805 44.8972 32.4803 45.4682C31.7801 46.0393 30.9039 46.3504 30.0004 46.3488C29.0973 46.3505 28.2214 46.0398 27.5212 45.4692C26.8211 44.8987 26.3399 44.1035 26.1593 43.2186L23.873 32.1044Z" stroke="var(--stroke-0, black)" stroke-width="2.5" stroke-linecap="round" stroke-linejoin="round"/>
<path id="Vector_2" d="M30.0005 24.5885C33.2765 24.5885 35.1203 22.7472 35.1203 19.4687C35.1203 16.1902 33.279 14.3489 30.0005 14.3489C26.722 14.3489 24.8807 16.1902 24.8807 19.4687C24.8807 22.7472 26.722 24.5885 30.0005 24.5885Z" stroke="var(--stroke-0, black)" stroke-width="2.5" stroke-linecap="round" stroke-linejoin="round"/>
</g>
</g>
</svg>
