<svg preserveAspectRatio="none" width="100%" height="100%" overflow="visible" style="display: block;" viewBox="0 0 60 60.3489" fill="none" xmlns="http://www.w3.org/2000/svg">
<g id="icon professional">
<circle id="Ellipse" cx="30" cy="30.3489" r="30" fill="var(--fill-0, #EBDDB6)"/>
<path id="Vector" d="M28.2979 30.3477C28.2979 30.6185 28.1903 30.8783 27.9987 31.0698C27.8072 31.2613 27.5475 31.3689 27.2767 31.3689H19.107C18.8362 31.3689 18.5765 31.2613 18.3849 31.0698C18.1934 30.8783 18.0858 30.6185 18.0858 30.3477C18.0858 30.0769 18.1934 29.8171 18.3849 29.6256C18.5765 29.4341 18.8362 29.3265 19.107 29.3265H27.2767C27.5475 29.3265 27.8072 29.4341 27.9987 29.6256C28.1903 29.8171 28.2979 30.0769 28.2979 30.3477ZM27.2767 23.8801H19.107C18.8362 23.8801 18.5765 23.9877 18.3849 24.1792C18.1934 24.3707 18.0858 24.6305 18.0858 24.9013C18.0858 25.1721 18.1934 25.4319 18.3849 25.6234C18.5765 25.8149 18.8362 25.9225 19.107 25.9225H27.2767C27.5475 25.9225 27.8072 25.8149 27.9987 25.6234C28.1903 25.4319 28.2979 25.1721 28.2979 24.9013C28.2979 24.6305 28.1903 24.3707 27.9987 24.1792C27.8072 23.9877 27.5475 23.8801 27.2767 23.8801ZM45.9987 34.538V45.3253C45.9991 45.5048 45.9522 45.6812 45.8627 45.8367C45.7733 45.9923 45.6444 46.1216 45.4891 46.2115C45.3338 46.3014 45.1575 46.3488 44.9781 46.3489C44.7986 46.349 44.6223 46.3018 44.4669 46.2121L40.2119 43.7782L35.9569 46.2121C35.8014 46.3018 35.6251 46.349 35.4457 46.3489C35.2662 46.3488 35.09 46.3014 34.9346 46.2115C34.7793 46.1216 34.6505 45.9923 34.561 45.8367C34.4715 45.6812 34.4246 45.5048 34.4251 45.3253V40.9001H13.6606C13.0287 40.9001 12.4226 40.6491 11.9757 40.2022C11.5289 39.7553 11.2778 39.1493 11.2778 38.5173V16.7317C11.2778 16.0997 11.5289 15.4936 11.9757 15.0468C12.4226 14.5999 13.0287 14.3489 13.6606 14.3489H43.6159C44.2478 14.3489 44.8539 14.5999 45.3008 15.0468C45.7476 15.4936 45.9987 16.0997 45.9987 16.7317V22.0726C46.8574 22.8678 47.5426 23.832 48.0112 24.9045C48.4798 25.9771 48.7216 27.1349 48.7216 28.3053C48.7216 29.4757 48.4798 30.6335 48.0112 31.7061C47.5426 32.7786 46.8574 33.7428 45.9987 34.538ZM40.2119 21.8377C38.9327 21.8377 37.6823 22.217 36.6187 22.9277C35.5551 23.6383 34.7261 24.6484 34.2366 25.8302C33.7471 27.0121 33.619 28.3125 33.8685 29.5671C34.1181 30.8217 34.7341 31.9741 35.6386 32.8786C36.5431 33.7831 37.6955 34.3991 38.9501 34.6486C40.2047 34.8982 41.5051 34.7701 42.6869 34.2806C43.8687 33.7911 44.8788 32.9621 45.5895 31.8985C46.3002 30.8349 46.6795 29.5845 46.6795 28.3053C46.6795 26.59 45.9981 24.9449 44.7852 23.732C43.5722 22.5191 41.9272 21.8377 40.2119 21.8377ZM34.4251 38.8577V34.538C32.935 33.1474 31.9934 31.2681 31.7718 29.242C31.5501 27.2159 32.063 25.1775 33.2172 23.4975C34.3714 21.8176 36.0901 20.6077 38.061 20.0879C40.0318 19.5681 42.1237 19.7729 43.9563 20.665V16.7317C43.9563 16.6414 43.9204 16.5548 43.8566 16.491C43.7927 16.4271 43.7062 16.3913 43.6159 16.3913H13.6606C13.5704 16.3913 13.4838 16.4271 13.4199 16.491C13.3561 16.5548 13.3202 16.6414 13.3202 16.7317V38.5173C13.3202 38.6076 13.3561 38.6942 13.4199 38.758C13.4838 38.8218 13.5704 38.8577 13.6606 38.8577H34.4251ZM43.9563 35.9456C42.791 36.5178 41.5101 36.8154 40.2119 36.8154C38.9137 36.8154 37.6327 36.5178 36.4675 35.9456V43.5654L39.7013 41.7154C39.8565 41.6257 40.0326 41.5786 40.2119 41.5786C40.3911 41.5786 40.5672 41.6257 40.7225 41.7154L43.9563 43.5654V35.9456Z" fill="var(--fill-0, black)"/>
</g>
</svg>
