<svg preserveAspectRatio="none" width="100%" height="100%" overflow="visible" style="display: block;" viewBox="0 0 60 60.3489" fill="none" xmlns="http://www.w3.org/2000/svg">
<g id="icon senior">
<circle id="Ellipse" cx="30" cy="30.3489" r="30" fill="var(--fill-0, #EBDDB6)"/>
<path id="Vector" d="M29.9997 14.3489C24.6362 14.3489 20.2605 18.7245 20.2605 24.088C20.2605 27.3979 21.944 30.3266 24.4776 32.088C18.7663 34.3169 14.6953 39.8821 14.6953 46.3489H17.4779C17.4779 40.2299 21.9176 35.1155 27.7388 34.0442L28.6084 36.6097H31.391L32.2605 34.0442C38.0817 35.1155 42.5214 40.2299 42.5214 46.3489H45.304C45.304 39.8821 41.2331 34.3169 35.5217 32.088C38.0539 30.3266 39.7388 27.3979 39.7388 24.088C39.7388 18.7245 35.3631 14.3489 29.9997 14.3489ZM29.9997 17.1315C33.8577 17.1315 36.9562 20.2299 36.9562 24.088C36.9562 27.9461 33.8577 31.0445 29.9997 31.0445C26.1416 31.0445 23.0431 27.9461 23.0431 24.088C23.0431 20.2299 26.1416 17.1315 29.9997 17.1315ZM28.6084 38.0011L27.2171 46.3489H32.7823L31.391 38.0011H28.6084Z" fill="var(--fill-0, black)"/>
</g>
</svg>
